<svg width="293" height="318" viewBox="0 0 293 318" fill="none" xmlns="http://www.w3.org/2000/svg">
<path opacity="0.1" d="M182.369 115.416C175.525 115.416 169.429 113.725 164.079 110.342C158.73 106.959 154.521 102.082 151.453 95.71C148.464 89.2593 146.969 81.5893 146.969 72.7C146.969 63.8107 148.464 56.18 151.453 49.808C154.521 43.3573 158.73 38.4407 164.079 35.058C169.429 31.6753 175.525 29.984 182.369 29.984C189.213 29.984 195.31 31.6753 200.659 35.058C206.009 38.4407 210.178 43.3573 213.167 49.808C216.235 56.18 217.769 63.8107 217.769 72.7C217.769 81.5893 216.235 89.2593 213.167 95.71C210.178 102.082 206.009 106.959 200.659 110.342C195.31 113.725 189.213 115.416 182.369 115.416ZM182.369 99.25C187.404 99.25 191.337 97.0867 194.169 92.76C197.08 88.4333 198.535 81.7467 198.535 72.7C198.535 63.6533 197.08 56.9667 194.169 52.64C191.337 48.3133 187.404 46.15 182.369 46.15C177.413 46.15 173.48 48.3133 170.569 52.64C167.737 56.9667 166.321 63.6533 166.321 72.7C166.321 81.7467 167.737 88.4333 170.569 92.76C173.48 97.0867 177.413 99.25 182.369 99.25ZM255.377 62.434C267.02 62.434 275.594 64.7547 281.101 69.396C286.686 74.0373 289.479 80.252 289.479 88.04C289.479 93.0747 288.22 97.6767 285.703 101.846C283.186 105.937 279.331 109.241 274.139 111.758C269.026 114.197 262.693 115.416 255.141 115.416C249.32 115.416 243.577 114.669 237.913 113.174C232.328 111.601 227.568 109.398 223.635 106.566L231.187 91.934C234.334 94.294 237.952 96.1427 242.043 97.48C246.134 98.7387 250.342 99.368 254.669 99.368C259.468 99.368 263.244 98.424 265.997 96.536C268.75 94.648 270.127 92.0127 270.127 88.63C270.127 85.09 268.672 82.4153 265.761 80.606C262.929 78.7967 257.973 77.892 250.893 77.892H229.771L234.019 31.4H284.405V46.74H249.949L248.651 62.434H255.377Z" fill="white"/>
<g filter="url(#filter0_d)">
<circle cx="144" cy="164" r="90" fill="#1D1D1D"/>
</g>
<g clip-path="url(#clip0)">
<path d="M115.023 131.218C113.244 131.218 111.798 132.664 111.798 134.443C111.798 136.221 113.244 137.667 115.023 137.667C116.801 137.667 118.247 136.221 118.247 134.443C118.247 132.664 116.801 131.218 115.023 131.218ZM115.023 135.469C114.456 135.469 113.996 135.009 113.996 134.443C113.996 133.876 114.456 133.416 115.023 133.416C115.589 133.416 116.05 133.876 116.05 134.443C116.05 135.009 115.589 135.469 115.023 135.469Z" fill="#EF8B54"/>
<path d="M123.233 131.218C121.454 131.218 120.008 132.664 120.008 134.443C120.008 136.221 121.455 137.667 123.233 137.667C125.011 137.667 126.457 136.221 126.457 134.443C126.457 132.664 125.011 131.218 123.233 131.218ZM123.233 135.469C122.666 135.469 122.206 135.009 122.206 134.443C122.206 133.876 122.666 133.416 123.233 133.416C123.799 133.416 124.26 133.876 124.26 134.443C124.26 135.009 123.799 135.469 123.233 135.469Z" fill="#EF8B54"/>
<path d="M131.443 131.218C129.664 131.218 128.218 132.664 128.218 134.443C128.218 136.221 129.664 137.667 131.443 137.667C133.221 137.667 134.667 136.221 134.667 134.443C134.667 132.664 133.221 131.218 131.443 131.218ZM131.443 135.469C130.876 135.469 130.416 135.009 130.416 134.443C130.416 133.876 130.876 133.416 131.443 133.416C132.009 133.416 132.47 133.876 132.47 134.443C132.47 135.009 132.009 135.469 131.443 135.469Z" fill="#EF8B54"/>
<path d="M177.164 127H111.836C109.169 127 107 129.169 107 131.836V197.164C107 199.83 109.169 202 111.836 202H177.164C179.83 202 182 199.83 182 197.164V180.518C182 179.911 181.508 179.419 180.901 179.419C180.294 179.419 179.802 179.911 179.802 180.518V197.164C179.802 198.619 178.619 199.802 177.164 199.802H111.836C110.381 199.802 109.198 198.619 109.198 197.164V141.947H179.802V173.731C179.802 174.337 180.294 174.829 180.901 174.829C181.508 174.829 182 174.337 182 173.731V131.836C182 129.169 179.831 127 177.164 127V127ZM179.802 139.749H109.198V131.836C109.198 130.381 110.381 129.198 111.836 129.198H177.164C178.619 129.198 179.802 130.381 179.802 131.836V139.749Z" fill="#EF8B54"/>
<path d="M174.599 149.695C174.599 147.778 173.04 146.22 171.125 146.22H117.711C115.795 146.22 114.237 147.778 114.237 149.695V156.149C114.237 156.756 114.729 157.248 115.335 157.248C115.942 157.248 116.435 156.756 116.435 156.149V149.695C116.435 148.99 117.007 148.418 117.711 148.418H171.125C171.828 148.418 172.401 148.99 172.401 149.695V169.81C172.401 170.514 171.828 171.087 171.125 171.087H167.666L156.402 158.392C156.073 158.022 155.601 157.801 155.105 157.786C154.61 157.77 154.126 157.964 153.775 158.314L147.809 164.277L139.772 155.22C139.443 154.849 138.971 154.628 138.476 154.613C137.981 154.601 137.496 154.791 137.145 155.141L121.192 171.087H117.711C117.007 171.087 116.435 170.514 116.435 169.81V163.083C116.435 162.476 115.942 161.984 115.335 161.984C114.729 161.984 114.237 162.476 114.237 163.083V169.81C114.237 171.726 115.795 173.284 117.711 173.284H171.125C173.04 173.284 174.599 171.726 174.599 169.81V149.695ZM124.301 171.087L138.405 156.99L149.098 169.04C149.5 169.495 150.195 169.536 150.649 169.133C151.103 168.73 151.144 168.036 150.742 167.582L149.27 165.924L155.035 160.163L164.728 171.087H124.301Z" fill="#EF8B54"/>
<path d="M117.711 176.361C115.795 176.361 114.237 177.919 114.237 179.835V190.615C114.237 192.531 115.795 194.089 117.711 194.089H138.966C140.881 194.089 142.44 192.531 142.44 190.615V179.835C142.44 177.919 140.881 176.361 138.966 176.361H117.711ZM140.242 179.835V190.615C140.242 191.319 139.669 191.891 138.966 191.891H117.711C117.007 191.891 116.435 191.319 116.435 190.615V179.835C116.435 179.131 117.007 178.559 117.711 178.559H138.966C139.669 178.559 140.242 179.131 140.242 179.835Z" fill="#EF8B54"/>
<path d="M149.87 176.361C147.954 176.361 146.396 177.919 146.396 179.835V190.615C146.396 192.531 147.954 194.089 149.87 194.089H171.125C173.04 194.089 174.599 192.531 174.599 190.615V179.835C174.599 177.919 173.04 176.361 171.125 176.361H149.87ZM172.401 179.835V190.615C172.401 191.319 171.828 191.891 171.125 191.891H149.87C149.166 191.891 148.594 191.319 148.594 190.615V179.835C148.594 179.131 149.166 178.559 149.87 178.559H171.125C171.828 178.559 172.401 179.131 172.401 179.835Z" fill="#EF8B54"/>
<path d="M119.841 182.704H122.812C123.419 182.704 123.91 182.213 123.91 181.606C123.91 180.998 123.419 180.506 122.812 180.506H119.841C119.234 180.506 118.742 180.998 118.742 181.606C118.742 182.213 119.234 182.704 119.841 182.704Z" fill="#EF8B54"/>
<path d="M119.841 186.427H121.386C121.992 186.427 122.484 185.935 122.484 185.328C122.484 184.721 121.992 184.229 121.386 184.229H119.841C119.234 184.229 118.742 184.721 118.742 185.328C118.742 185.935 119.234 186.427 119.841 186.427Z" fill="#EF8B54"/>
<path d="M136.836 184.229H132.734C132.127 184.229 131.635 184.721 131.635 185.328C131.635 185.935 132.127 186.427 132.734 186.427H136.836C137.443 186.427 137.935 185.935 137.935 185.328C137.935 184.721 137.443 184.229 136.836 184.229Z" fill="#EF8B54"/>
<path d="M126.58 182.704H136.543C137.149 182.704 137.642 182.213 137.642 181.606C137.642 180.998 137.149 180.506 136.543 180.506H126.58C125.973 180.506 125.482 180.998 125.482 181.606C125.482 182.213 125.973 182.704 126.58 182.704Z" fill="#EF8B54"/>
<path d="M136.543 187.746H133.571C132.965 187.746 132.473 188.237 132.473 188.844C132.473 189.452 132.965 189.944 133.571 189.944H136.543C137.149 189.944 137.642 189.452 137.642 188.844C137.642 188.237 137.149 187.746 136.543 187.746Z" fill="#EF8B54"/>
<path d="M129.803 187.746H119.841C119.234 187.746 118.742 188.237 118.742 188.844C118.742 189.452 119.234 189.944 119.841 189.944H129.803C130.41 189.944 130.902 189.452 130.902 188.844C130.902 188.237 130.41 187.746 129.803 187.746Z" fill="#EF8B54"/>
<path d="M124.792 186.427H129.071C129.678 186.427 130.17 185.935 130.17 185.328C130.17 184.721 129.678 184.229 129.071 184.229H124.792C124.186 184.229 123.693 184.721 123.693 185.328C123.693 185.935 124.186 186.427 124.792 186.427Z" fill="#EF8B54"/>
<path d="M152 182.704H154.971C155.578 182.704 156.069 182.213 156.069 181.606C156.069 180.998 155.578 180.506 154.971 180.506H152C151.393 180.506 150.901 180.998 150.901 181.606C150.901 182.213 151.393 182.704 152 182.704Z" fill="#EF8B54"/>
<path d="M152 186.427H153.545C154.151 186.427 154.643 185.935 154.643 185.328C154.643 184.721 154.151 184.229 153.545 184.229H152C151.393 184.229 150.901 184.721 150.901 185.328C150.901 185.935 151.393 186.427 152 186.427Z" fill="#EF8B54"/>
<path d="M168.995 184.229H164.893C164.286 184.229 163.794 184.721 163.794 185.328C163.794 185.935 164.286 186.427 164.893 186.427H168.995C169.601 186.427 170.094 185.935 170.094 185.328C170.094 184.721 169.601 184.229 168.995 184.229Z" fill="#EF8B54"/>
<path d="M158.739 182.704H168.702C169.309 182.704 169.801 182.213 169.801 181.606C169.801 180.998 169.309 180.506 168.702 180.506H158.739C158.132 180.506 157.64 180.998 157.64 181.606C157.64 182.213 158.132 182.704 158.739 182.704Z" fill="#EF8B54"/>
<path d="M168.702 187.746H165.731C165.124 187.746 164.632 188.237 164.632 188.844C164.632 189.452 165.124 189.944 165.731 189.944H168.702C169.309 189.944 169.801 189.452 169.801 188.844C169.801 188.237 169.309 187.746 168.702 187.746Z" fill="#EF8B54"/>
<path d="M161.963 187.746H152C151.393 187.746 150.901 188.237 150.901 188.844C150.901 189.452 151.393 189.944 152 189.944H161.963C162.569 189.944 163.061 189.452 163.061 188.844C163.061 188.237 162.569 187.746 161.963 187.746Z" fill="#EF8B54"/>
<path d="M156.951 186.427H161.23C161.837 186.427 162.329 185.935 162.329 185.328C162.329 184.721 161.837 184.229 161.23 184.229H156.951C156.345 184.229 155.853 184.721 155.853 185.328C155.853 185.935 156.345 186.427 156.951 186.427Z" fill="#EF8B54"/>
<path d="M166.96 154.361C166.96 152.053 165.083 150.176 162.775 150.176C160.468 150.176 158.591 152.053 158.591 154.361C158.591 156.668 160.468 158.546 162.775 158.546C165.083 158.546 166.96 156.668 166.96 154.361ZM160.788 154.361C160.788 153.265 161.679 152.374 162.775 152.374C163.871 152.374 164.762 153.265 164.762 154.361C164.762 155.456 163.871 156.348 162.775 156.348C161.679 156.348 160.788 155.456 160.788 154.361Z" fill="#EF8B54"/>
</g>
<defs>
<filter id="filter0_d" x="36" y="59" width="220" height="220" filterUnits="userSpaceOnUse" color-interpolation-filters="sRGB">
<feFlood flood-opacity="0" result="BackgroundImageFix"/>
<feColorMatrix in="SourceAlpha" type="matrix" values="0 0 0 0 0 0 0 0 0 0 0 0 0 0 0 0 0 0 127 0"/>
<feOffset dx="2" dy="5"/>
<feGaussianBlur stdDeviation="10"/>
<feColorMatrix type="matrix" values="0 0 0 0 0 0 0 0 0 0 0 0 0 0 0 0 0 0 0.2 0"/>
<feBlend mode="normal" in2="BackgroundImageFix" result="effect1_dropShadow"/>
<feBlend mode="normal" in="SourceGraphic" in2="effect1_dropShadow" result="shape"/>
</filter>
<clipPath id="clip0">
<rect width="75" height="75" fill="white" transform="translate(107 127)"/>
</clipPath>
</defs>
</svg>
