<svg width="277" height="318" viewBox="0 0 277 318" fill="none" xmlns="http://www.w3.org/2000/svg">
<path opacity="0.1" d="M168.118 115.416C161.274 115.416 155.178 113.725 149.828 110.342C144.479 106.959 140.27 102.082 137.202 95.71C134.213 89.2593 132.718 81.5893 132.718 72.7C132.718 63.8107 134.213 56.18 137.202 49.808C140.27 43.3573 144.479 38.4407 149.828 35.058C155.178 31.6753 161.274 29.984 168.118 29.984C174.962 29.984 181.059 31.6753 186.408 35.058C191.758 38.4407 195.927 43.3573 198.916 49.808C201.984 56.18 203.518 63.8107 203.518 72.7C203.518 81.5893 201.984 89.2593 198.916 95.71C195.927 102.082 191.758 106.959 186.408 110.342C181.059 113.725 174.962 115.416 168.118 115.416ZM168.118 99.25C173.153 99.25 177.086 97.0867 179.918 92.76C182.829 88.4333 184.284 81.7467 184.284 72.7C184.284 63.6533 182.829 56.9667 179.918 52.64C177.086 48.3133 173.153 46.15 168.118 46.15C163.162 46.15 159.229 48.3133 156.318 52.64C153.486 56.9667 152.07 63.6533 152.07 72.7C152.07 81.7467 153.486 88.4333 156.318 92.76C159.229 97.0867 163.162 99.25 168.118 99.25ZM250.24 65.03C257.477 66.21 263.023 68.924 266.878 73.172C270.732 77.3413 272.66 82.5333 272.66 88.748C272.66 93.5467 271.401 97.9913 268.884 102.082C266.366 106.094 262.512 109.319 257.32 111.758C252.206 114.197 245.913 115.416 238.44 115.416C232.618 115.416 226.876 114.669 221.212 113.174C215.626 111.601 210.867 109.398 206.934 106.566L214.368 91.934C217.514 94.294 221.133 96.1427 225.224 97.48C229.393 98.7387 233.641 99.368 237.968 99.368C242.766 99.368 246.542 98.4633 249.296 96.654C252.049 94.766 253.426 92.1307 253.426 88.748C253.426 81.9827 248.273 78.6 237.968 78.6H229.236V65.974L246.228 46.74H211.064V31.4H268.884V43.79L250.24 65.03Z" fill="white"/>
<g filter="url(#filter0_d)">
<circle cx="130" cy="164" r="90" fill="#1D1D1D"/>
</g>
<g clip-path="url(#clip0)">
<path d="M177.862 143.785C177.604 142.825 176.974 142.006 176.113 141.51C175.25 141.012 174.225 140.877 173.263 141.135C172.303 141.394 171.484 142.023 170.988 142.885L170.363 143.972C169.77 143.631 169.011 143.832 168.664 144.422L165.489 149.834L164.402 149.209C164.114 149.042 163.771 148.997 163.45 149.084C163.128 149.171 162.855 149.382 162.69 149.671C162.351 150.269 162.557 151.028 163.152 151.371L164.24 151.996L153.616 170.405L150.992 177.417L149.742 179.753C149.01 181.026 149.088 182.609 149.942 183.803L147.13 187.252L146.343 185.278C145.988 184.398 145.166 183.795 144.22 183.721C143.275 183.647 142.368 184.114 141.881 184.928L141.431 185.69L141.006 180.691C140.909 179.508 139.993 178.557 138.815 178.414C137.637 178.272 136.521 178.978 136.144 180.104L133.07 189.327C132.855 189.979 133.207 190.682 133.857 190.902C133.979 190.959 134.11 190.993 134.245 191.001C134.782 191.003 135.26 190.661 135.432 190.152L138.494 180.929L138.931 186.002C139.022 187.085 139.8 187.985 140.858 188.23C141.916 188.476 143.011 188.009 143.568 187.078L144.031 186.315L144.806 188.277C145.135 189.104 145.879 189.694 146.759 189.825C147.64 189.957 148.523 189.609 149.08 188.914L151.992 185.228C152.314 185.312 152.646 185.354 152.979 185.353C154.319 185.363 155.563 184.658 156.241 183.503L157.491 181.416L162.253 175.629L172.988 156.995L174.076 157.62C174.365 157.786 174.577 158.06 174.663 158.382C174.749 158.703 174.704 159.045 174.538 159.332L169.539 167.993C169.35 168.278 169.286 168.627 169.362 168.96C169.438 169.292 169.646 169.58 169.939 169.755C170.227 169.922 170.57 169.967 170.891 169.881C171.212 169.794 171.486 169.582 171.651 169.293L176.65 160.632C177.149 159.77 177.284 158.744 177.025 157.783C176.766 156.822 176.137 156.004 175.275 155.508L174.188 154.883L177.312 149.471C177.653 148.877 177.453 148.119 176.863 147.771L177.487 146.684C178 145.808 178.135 144.762 177.862 143.785ZM173.15 144.134C173.316 143.845 173.59 143.633 173.913 143.547C174.234 143.468 174.574 143.513 174.863 143.672C175.153 143.838 175.364 144.112 175.45 144.435C175.53 144.756 175.485 145.095 175.325 145.384L174.701 146.472L172.526 145.222L173.15 144.134ZM156.116 179.029L155.491 178.667L153.641 177.591L155.416 172.842L159.353 175.117L156.116 179.029ZM152.367 182.64C151.839 182.272 151.676 181.565 151.992 181.003L152.617 179.916L154.791 181.166L154.166 182.241C153.991 182.545 153.697 182.761 153.355 182.837C153.012 182.913 152.654 182.842 152.367 182.64ZM160.778 173.067L156.453 170.568L166.452 153.245L170.776 155.745L160.778 173.067ZM172.026 153.583L167.702 151.083L170.201 146.759L174.525 149.259L172.026 153.583Z" fill="#EF8B54"/>
<path d="M122.721 182.016L118.298 186.428L115.648 183.778C115.16 183.293 114.373 183.293 113.886 183.778C113.649 184.013 113.516 184.332 113.516 184.665C113.516 184.998 113.649 185.318 113.886 185.553L116.535 188.202C117.004 188.667 117.637 188.928 118.298 188.927C118.962 188.931 119.601 188.67 120.072 188.202L124.484 183.778C124.909 183.282 124.88 182.543 124.418 182.081C123.957 181.62 123.218 181.591 122.721 182.016Z" fill="#EF8B54"/>
<path d="M107.999 185.377C107.999 191.245 112.755 196.001 118.622 196.001C124.489 196.001 129.245 191.245 129.245 185.377C129.245 184.687 128.686 184.128 127.996 184.128C127.305 184.128 126.746 184.687 126.746 185.377C126.746 189.864 123.109 193.501 118.622 193.501C114.136 193.501 110.499 189.864 110.499 185.377C110.499 180.891 114.136 177.254 118.622 177.254C120.381 177.249 122.093 177.82 123.496 178.879C124.049 179.293 124.832 179.181 125.246 178.629C125.66 178.076 125.549 177.294 124.996 176.879C121.777 174.465 117.47 174.077 113.871 175.876C110.272 177.676 107.999 181.354 107.999 185.377Z" fill="#EF8B54"/>
<path d="M147.992 136.011C148.682 136.011 149.242 135.452 149.242 134.761C149.242 134.071 148.682 133.511 147.992 133.511H115.498C114.808 133.511 114.248 134.071 114.248 134.761V139.76C114.248 140.451 114.808 141.01 115.498 141.01H147.992C148.682 141.01 149.242 140.451 149.242 139.76C149.242 139.07 148.682 138.51 147.992 138.51H116.748V136.011H147.992Z" fill="#EF8B54"/>
<path d="M119.247 143.51C118.557 143.51 117.997 144.069 117.997 144.759C117.997 145.45 118.557 146.009 119.247 146.009H144.243C144.933 146.009 145.493 145.45 145.493 144.759C145.493 144.069 144.933 143.51 144.243 143.51H119.247Z" fill="#EF8B54"/>
<path d="M151.742 152.258H124.246C123.556 152.258 122.997 152.818 122.997 153.508C122.997 154.199 123.556 154.758 124.246 154.758H151.742C152.432 154.758 152.991 154.199 152.991 153.508C152.991 152.818 152.432 152.258 151.742 152.258Z" fill="#EF8B54"/>
<path d="M139.244 161.007C139.244 160.316 138.684 159.757 137.994 159.757H112.998C112.308 159.757 111.749 160.316 111.749 161.007C111.749 161.697 112.308 162.256 112.998 162.256H137.994C138.684 162.256 139.244 161.697 139.244 161.007Z" fill="#EF8B54"/>
<path d="M151.742 159.757H142.993C142.303 159.757 141.743 160.316 141.743 161.007C141.743 161.697 142.303 162.256 142.993 162.256H151.742C152.432 162.256 152.991 161.697 152.991 161.007C152.991 160.316 152.432 159.757 151.742 159.757Z" fill="#EF8B54"/>
<path d="M125.496 168.505C126.186 168.505 126.746 167.946 126.746 167.255C126.746 166.565 126.186 166.006 125.496 166.006H112.998C112.308 166.006 111.749 166.565 111.749 167.255C111.749 167.946 112.308 168.505 112.998 168.505H125.496Z" fill="#EF8B54"/>
<path d="M130.495 168.505H139.244C139.934 168.505 140.494 167.946 140.494 167.255C140.494 166.565 139.934 166.006 139.244 166.006H130.495C129.805 166.006 129.245 166.565 129.245 167.255C129.245 167.946 129.805 168.505 130.495 168.505Z" fill="#EF8B54"/>
<path d="M159.24 183.503C158.55 183.503 157.991 184.062 157.991 184.752V197.25C157.991 197.941 157.431 198.5 156.741 198.5H106.749C106.059 198.5 105.5 197.941 105.5 197.25V129.762C105.5 129.072 106.059 128.512 106.749 128.512H156.741C157.431 128.512 157.991 129.072 157.991 129.762V153.233C157.991 153.923 158.55 154.483 159.24 154.483C159.931 154.483 160.49 153.923 160.49 153.233V129.762C160.49 127.691 158.811 126.012 156.741 126.012H106.749C104.679 126.012 103 127.691 103 129.762V197.25C103 199.321 104.679 201 106.749 201H156.741C158.811 201 160.49 199.321 160.49 197.25V184.752C160.49 184.062 159.931 183.503 159.24 183.503Z" fill="#EF8B54"/>
</g>
<defs>
<filter id="filter0_d" x="22" y="59" width="220" height="220" filterUnits="userSpaceOnUse" color-interpolation-filters="sRGB">
<feFlood flood-opacity="0" result="BackgroundImageFix"/>
<feColorMatrix in="SourceAlpha" type="matrix" values="0 0 0 0 0 0 0 0 0 0 0 0 0 0 0 0 0 0 127 0"/>
<feOffset dx="2" dy="5"/>
<feGaussianBlur stdDeviation="10"/>
<feColorMatrix type="matrix" values="0 0 0 0 0 0 0 0 0 0 0 0 0 0 0 0 0 0 0.2 0"/>
<feBlend mode="normal" in2="BackgroundImageFix" result="effect1_dropShadow"/>
<feBlend mode="normal" in="SourceGraphic" in2="effect1_dropShadow" result="shape"/>
</filter>
<clipPath id="clip0">
<rect width="75" height="75" fill="white" transform="translate(103 126)"/>
</clipPath>
</defs>
</svg>
