<svg width="120" height="120" viewBox="0 0 120 120" fill="none" xmlns="http://www.w3.org/2000/svg">
<g filter="url(#filter0_d)">
<path d="M110 50C110 77.6142 87.6142 100 60 100C32.3858 100 10 77.6142 10 50C10 22.3858 32.3858 0 60 0C87.6142 0 110 22.3858 110 50Z" fill="white"/>
</g>
<path d="M44.672 51.256H42.752V55H41.616V46.584H42.752V50.28H44.688L47.648 46.584H48.88L45.568 50.664L49.12 55H47.776L44.672 51.256ZM57.7929 46.584V55H56.6569V47.592H52.6249L52.5129 49.672C52.4275 51.4213 52.2249 52.7653 51.9049 53.704C51.5849 54.6427 51.0142 55.112 50.1929 55.112C49.9689 55.112 49.6969 55.0693 49.3769 54.984L49.4569 54.008C49.6489 54.0507 49.7822 54.072 49.8569 54.072C50.2942 54.072 50.6249 53.8693 50.8489 53.464C51.0729 53.0587 51.2222 52.5573 51.2969 51.96C51.3715 51.3627 51.4355 50.5733 51.4889 49.592L51.6329 46.584H57.7929ZM61.0223 46.584H62.1583V53.272L67.7743 46.584H68.7823V55H67.6463V48.312L62.0463 55H61.0223V46.584ZM75.0939 51.256H73.1739V55H72.0379V46.584H73.1739V50.28H75.1099L78.0699 46.584H79.3019L75.9899 50.664L79.5419 55H78.1979L75.0939 51.256Z" fill="black"/>
<defs>
<filter id="filter0_d" x="0" y="0" width="120" height="120" filterUnits="userSpaceOnUse" color-interpolation-filters="sRGB">
<feFlood flood-opacity="0" result="BackgroundImageFix"/>
<feColorMatrix in="SourceAlpha" type="matrix" values="0 0 0 0 0 0 0 0 0 0 0 0 0 0 0 0 0 0 127 0"/>
<feOffset dy="10"/>
<feGaussianBlur stdDeviation="5"/>
<feColorMatrix type="matrix" values="0 0 0 0 0 0 0 0 0 0 0 0 0 0 0 0 0 0 0.3 0"/>
<feBlend mode="normal" in2="BackgroundImageFix" result="effect1_dropShadow"/>
<feBlend mode="normal" in="SourceGraphic" in2="effect1_dropShadow" result="shape"/>
</filter>
</defs>
</svg>
