<?xml version="1.0" encoding="UTF-8"?>
<svg xmlns="http://www.w3.org/2000/svg" xmlns:xlink="http://www.w3.org/1999/xlink" width="20pt" height="20pt" viewBox="0 0 20 20" version="1.1">
<g id="surface1">
<path style=" stroke:none;fill-rule:nonzero;fill:rgb(10.980392%,22.745098%,66.27451%);fill-opacity:1;" d="M 15.601562 8.273438 C 15.601562 8.195312 15.597656 8.113281 15.59375 8.035156 L 15.59375 3.503906 L 14.339844 4.757812 C 13.316406 3.5 11.757812 2.699219 10.007812 2.699219 C 8.191406 2.699219 6.574219 3.566406 5.554688 4.910156 L 7.605469 6.988281 C 7.808594 6.613281 8.09375 6.292969 8.4375 6.054688 C 8.796875 5.773438 9.304688 5.542969 10.007812 5.542969 C 10.09375 5.542969 10.160156 5.554688 10.207031 5.574219 C 11.078125 5.640625 11.832031 6.121094 12.277344 6.820312 L 10.824219 8.273438 C 12.664062 8.265625 14.746094 8.261719 15.601562 8.273438 "/>
<path style=" stroke:none;fill-rule:nonzero;fill:rgb(25.882353%,52.156863%,95.686275%);fill-opacity:1;" d="M 9.976562 2.699219 C 9.894531 2.699219 9.816406 2.703125 9.734375 2.707031 L 5.203125 2.707031 L 6.457031 3.957031 C 5.203125 4.984375 4.398438 6.542969 4.398438 8.289062 C 4.398438 10.109375 5.269531 11.726562 6.613281 12.746094 L 8.6875 10.691406 C 8.316406 10.492188 7.996094 10.207031 7.753906 9.859375 C 7.472656 9.5 7.246094 8.992188 7.246094 8.289062 C 7.246094 8.207031 7.253906 8.140625 7.273438 8.09375 C 7.34375 7.222656 7.824219 6.46875 8.519531 6.023438 L 9.976562 7.476562 C 9.96875 5.636719 9.964844 3.554688 9.976562 2.699219 "/>
<path style=" stroke:none;fill-rule:nonzero;fill:rgb(67.058824%,67.058824%,67.058824%);fill-opacity:1;" d="M 4.398438 8.289062 C 4.402344 8.371094 4.402344 8.449219 4.40625 8.53125 L 4.40625 13.0625 L 5.660156 11.808594 C 6.683594 13.066406 8.246094 13.867188 9.992188 13.867188 C 11.808594 13.867188 13.425781 13 14.445312 11.65625 L 12.394531 9.578125 C 12.191406 9.953125 11.90625 10.269531 11.5625 10.511719 C 11.203125 10.792969 10.695312 11.019531 9.992188 11.019531 C 9.90625 11.019531 9.839844 11.011719 9.792969 10.992188 C 8.921875 10.921875 8.167969 10.441406 7.722656 9.746094 L 9.175781 8.292969 C 7.335938 8.300781 5.253906 8.304688 4.402344 8.292969 "/>
<path style=" stroke:none;fill-rule:nonzero;fill:rgb(65.098039%,65.098039%,65.098039%);fill-opacity:1;" d="M 5.34375 16.03125 C 5.207031 16.03125 5.085938 16.058594 4.976562 16.109375 C 4.871094 16.160156 4.777344 16.230469 4.703125 16.324219 C 4.628906 16.421875 4.570312 16.535156 4.53125 16.667969 C 4.492188 16.800781 4.472656 16.949219 4.472656 17.113281 L 4.472656 17.585938 C 4.472656 17.753906 4.492188 17.902344 4.53125 18.035156 C 4.570312 18.167969 4.628906 18.28125 4.699219 18.375 C 4.773438 18.46875 4.863281 18.539062 4.964844 18.589844 C 5.070312 18.640625 5.183594 18.667969 5.3125 18.667969 C 5.445312 18.667969 5.5625 18.648438 5.664062 18.609375 C 5.761719 18.570312 5.847656 18.515625 5.917969 18.441406 C 5.984375 18.367188 6.035156 18.277344 6.074219 18.171875 C 6.109375 18.070312 6.132812 17.949219 6.140625 17.816406 L 5.8125 17.816406 C 5.804688 17.921875 5.792969 18.007812 5.773438 18.082031 C 5.75 18.152344 5.722656 18.210938 5.683594 18.257812 C 5.644531 18.304688 5.597656 18.339844 5.535156 18.359375 C 5.476562 18.382812 5.402344 18.390625 5.3125 18.390625 C 5.21875 18.390625 5.140625 18.371094 5.074219 18.332031 C 5.007812 18.289062 4.957031 18.230469 4.914062 18.15625 C 4.875 18.085938 4.84375 18 4.824219 17.902344 C 4.808594 17.804688 4.800781 17.699219 4.800781 17.585938 L 4.800781 17.109375 C 4.800781 16.988281 4.808594 16.878906 4.832031 16.78125 C 4.855469 16.683594 4.886719 16.597656 4.929688 16.527344 C 4.976562 16.460938 5.03125 16.40625 5.101562 16.367188 C 5.167969 16.328125 5.25 16.308594 5.34375 16.308594 C 5.421875 16.308594 5.488281 16.320312 5.546875 16.34375 C 5.601562 16.367188 5.648438 16.402344 5.6875 16.449219 C 5.726562 16.5 5.753906 16.558594 5.773438 16.628906 C 5.792969 16.703125 5.808594 16.789062 5.8125 16.890625 L 6.140625 16.890625 C 6.132812 16.753906 6.113281 16.628906 6.074219 16.523438 C 6.035156 16.417969 5.984375 16.328125 5.917969 16.253906 C 5.851562 16.179688 5.769531 16.125 5.671875 16.089844 C 5.578125 16.050781 5.46875 16.03125 5.34375 16.03125 Z M 13.296875 16.03125 C 13.160156 16.03125 13.039062 16.058594 12.929688 16.109375 C 12.824219 16.160156 12.730469 16.230469 12.65625 16.324219 C 12.582031 16.421875 12.523438 16.535156 12.484375 16.667969 C 12.445312 16.800781 12.425781 16.949219 12.425781 17.113281 L 12.425781 17.585938 C 12.425781 17.753906 12.445312 17.902344 12.484375 18.035156 C 12.523438 18.167969 12.582031 18.28125 12.65625 18.375 C 12.726562 18.46875 12.816406 18.539062 12.917969 18.589844 C 13.023438 18.640625 13.136719 18.667969 13.265625 18.667969 C 13.398438 18.667969 13.515625 18.648438 13.617188 18.609375 C 13.71875 18.570312 13.800781 18.515625 13.871094 18.441406 C 13.9375 18.367188 13.988281 18.277344 14.027344 18.171875 C 14.0625 18.070312 14.085938 17.949219 14.09375 17.816406 L 13.769531 17.816406 C 13.757812 17.921875 13.746094 18.007812 13.726562 18.082031 C 13.707031 18.152344 13.675781 18.210938 13.636719 18.257812 C 13.601562 18.304688 13.550781 18.339844 13.488281 18.359375 C 13.429688 18.382812 13.355469 18.390625 13.265625 18.390625 C 13.171875 18.390625 13.09375 18.371094 13.027344 18.332031 C 12.960938 18.289062 12.910156 18.230469 12.867188 18.15625 C 12.828125 18.085938 12.796875 18 12.78125 17.902344 C 12.761719 17.804688 12.753906 17.699219 12.753906 17.585938 L 12.753906 17.109375 C 12.753906 16.988281 12.765625 16.878906 12.785156 16.78125 C 12.808594 16.683594 12.839844 16.597656 12.886719 16.527344 C 12.929688 16.460938 12.984375 16.40625 13.054688 16.367188 C 13.121094 16.328125 13.203125 16.308594 13.296875 16.308594 C 13.375 16.308594 13.445312 16.320312 13.5 16.34375 C 13.554688 16.367188 13.601562 16.402344 13.640625 16.449219 C 13.679688 16.5 13.707031 16.558594 13.726562 16.628906 C 13.746094 16.703125 13.761719 16.789062 13.765625 16.890625 L 14.09375 16.890625 C 14.085938 16.753906 14.066406 16.628906 14.027344 16.523438 C 13.992188 16.417969 13.9375 16.328125 13.871094 16.253906 C 13.804688 16.179688 13.722656 16.125 13.625 16.089844 C 13.53125 16.050781 13.421875 16.03125 13.296875 16.03125 Z M 7.199219 16.066406 L 6.375 18.632812 L 6.707031 18.632812 L 6.902344 17.960938 L 7.769531 17.960938 L 7.972656 18.632812 L 8.304688 18.632812 L 7.476562 16.066406 Z M 8.652344 16.066406 L 8.652344 18.632812 L 8.976562 18.632812 L 8.976562 17.628906 L 9.46875 17.628906 C 9.59375 17.628906 9.703125 17.609375 9.796875 17.578125 C 9.894531 17.542969 9.972656 17.492188 10.039062 17.425781 C 10.101562 17.359375 10.152344 17.277344 10.183594 17.183594 C 10.21875 17.085938 10.238281 16.972656 10.238281 16.851562 C 10.238281 16.738281 10.21875 16.632812 10.183594 16.539062 C 10.152344 16.441406 10.105469 16.359375 10.039062 16.289062 C 9.972656 16.21875 9.894531 16.164062 9.796875 16.125 C 9.703125 16.085938 9.59375 16.066406 9.46875 16.066406 Z M 10.484375 16.066406 L 10.484375 16.34375 L 11.15625 16.34375 L 11.15625 18.632812 L 11.476562 18.632812 L 11.476562 16.34375 L 12.152344 16.34375 L 12.152344 16.066406 Z M 14.527344 16.066406 L 14.527344 18.632812 L 14.851562 18.632812 L 14.851562 17.445312 L 15.882812 17.445312 L 15.882812 18.632812 L 16.207031 18.632812 L 16.207031 16.066406 L 15.882812 16.066406 L 15.882812 17.167969 L 14.851562 17.167969 L 14.851562 16.066406 Z M 17.429688 16.066406 L 16.601562 18.632812 L 16.933594 18.632812 L 17.132812 17.960938 L 18 17.960938 L 18.203125 18.632812 L 18.535156 18.632812 L 17.707031 16.066406 Z M 8.976562 16.34375 L 9.46875 16.34375 C 9.550781 16.34375 9.617188 16.359375 9.671875 16.386719 C 9.726562 16.414062 9.773438 16.453125 9.808594 16.5 C 9.84375 16.546875 9.871094 16.601562 9.886719 16.664062 C 9.90625 16.726562 9.914062 16.789062 9.914062 16.855469 C 9.914062 16.925781 9.90625 16.996094 9.886719 17.054688 C 9.871094 17.113281 9.84375 17.167969 9.808594 17.210938 C 9.773438 17.253906 9.726562 17.289062 9.671875 17.3125 C 9.617188 17.339844 9.550781 17.351562 9.46875 17.351562 L 8.976562 17.351562 Z M 7.335938 16.519531 L 7.6875 17.683594 L 6.988281 17.683594 Z M 17.566406 16.519531 L 17.917969 17.683594 L 17.21875 17.683594 Z M 2.394531 16.691406 C 2.316406 16.691406 2.246094 16.710938 2.1875 16.753906 C 2.128906 16.792969 2.082031 16.847656 2.042969 16.917969 L 2.035156 16.726562 L 1.734375 16.726562 L 1.734375 18.632812 L 2.046875 18.632812 L 2.046875 17.269531 C 2.074219 17.1875 2.117188 17.125 2.171875 17.078125 C 2.226562 17.03125 2.296875 17.007812 2.378906 17.007812 C 2.40625 17.007812 2.429688 17.007812 2.453125 17.007812 C 2.472656 17.011719 2.496094 17.011719 2.519531 17.019531 L 2.519531 16.714844 C 2.515625 16.714844 2.507812 16.710938 2.496094 16.707031 C 2.488281 16.703125 2.476562 16.703125 2.464844 16.699219 C 2.453125 16.695312 2.441406 16.695312 2.425781 16.695312 C 2.414062 16.691406 2.40625 16.691406 2.394531 16.691406 Z M 3.445312 16.691406 C 3.351562 16.691406 3.265625 16.707031 3.179688 16.738281 C 3.097656 16.769531 3.023438 16.820312 2.957031 16.894531 C 2.890625 16.964844 2.839844 17.058594 2.800781 17.175781 C 2.757812 17.292969 2.738281 17.433594 2.738281 17.601562 L 2.738281 17.816406 C 2.738281 17.960938 2.757812 18.089844 2.789062 18.195312 C 2.824219 18.300781 2.871094 18.390625 2.9375 18.460938 C 3 18.53125 3.078125 18.582031 3.171875 18.617188 C 3.261719 18.648438 3.363281 18.667969 3.480469 18.667969 C 3.5625 18.667969 3.632812 18.660156 3.699219 18.640625 C 3.765625 18.625 3.824219 18.605469 3.875 18.578125 C 3.925781 18.550781 3.96875 18.519531 4.003906 18.488281 C 4.039062 18.453125 4.070312 18.417969 4.097656 18.382812 L 3.933594 18.183594 C 3.910156 18.214844 3.882812 18.246094 3.851562 18.273438 C 3.824219 18.296875 3.789062 18.320312 3.753906 18.339844 C 3.71875 18.359375 3.679688 18.375 3.640625 18.386719 C 3.597656 18.394531 3.550781 18.402344 3.496094 18.402344 C 3.351562 18.402344 3.242188 18.355469 3.164062 18.261719 C 3.085938 18.167969 3.050781 18.019531 3.050781 17.816406 L 3.050781 17.773438 L 4.113281 17.773438 L 4.113281 17.589844 C 4.113281 17.445312 4.101562 17.316406 4.074219 17.203125 C 4.050781 17.09375 4.011719 17 3.957031 16.921875 C 3.902344 16.847656 3.835938 16.789062 3.75 16.75 C 3.664062 16.710938 3.5625 16.691406 3.445312 16.691406 Z M 3.445312 16.957031 C 3.511719 16.957031 3.566406 16.972656 3.613281 16.996094 C 3.65625 17.019531 3.691406 17.054688 3.71875 17.097656 C 3.746094 17.144531 3.765625 17.199219 3.777344 17.257812 C 3.789062 17.320312 3.796875 17.386719 3.800781 17.460938 L 3.800781 17.503906 L 3.050781 17.503906 C 3.054688 17.398438 3.070312 17.308594 3.089844 17.238281 C 3.109375 17.167969 3.136719 17.113281 3.171875 17.070312 C 3.207031 17.027344 3.25 17 3.292969 16.984375 C 3.339844 16.964844 3.390625 16.957031 3.445312 16.957031 Z M 3.445312 16.957031 "/>
</g>
</svg>
